<svg width="163" height="50" viewBox="0 0 163 50" fill="none" xmlns="http://www.w3.org/2000/svg">
<path d="M50 25C50 38.8071 38.8071 50 25 50C11.1929 50 0 38.8071 0 25C0 11.1929 11.1929 0 25 0C38.8071 0 50 11.1929 50 25Z" fill="black"/>
<path d="M34.2742 38V17.48H34.2022L26.7862 38H23.1862L15.8062 17.48H15.7342V38H12.3142V12.8H17.3902L24.9502 33.824H25.0222L32.6182 12.8H37.6942V38H34.2742Z" fill="white"/>
<path d="M75.731 35V22.988H75.679L71.571 35H68.113L63.979 22.832H63.927V35H60.417V16.8H65.253L69.829 30.19H69.881L74.431 16.8H79.241V35H75.731ZM86.9515 22V35H83.3895V22H86.9515ZM83.2595 19.582V16.02H87.0815V19.582H83.2595ZM89.2943 35L94.0263 28.37L89.4503 22H93.3243L95.8723 25.666L98.4203 22H102.294L97.6923 28.37L102.45 35H98.6283L95.8723 31.1L93.1163 35H89.2943ZM103.754 25.042V22H106.146V19.816L109.708 17.762V22H112.568V25.042H109.708V31.958H112.568V35H109.162L106.146 33.258V25.042H103.754ZM115.94 33.388V22H119.502V32.088H123.948V22H127.51V35.13H124.572L123.948 34.064L122.102 35.13H118.956L115.94 33.388ZM139.437 25.042H134.965V35H131.403V22H134.341L134.965 23.066L136.811 22H139.437V25.042ZM152.832 31.958V35H145.058L142.042 33.258V23.612L145.058 21.87H149.816L152.832 23.612V29.826H145.604V31.958H152.832ZM145.604 24.912V27.148H149.27V24.912H145.604Z" fill="black"/>
</svg>
